<?xml version="1.0" encoding="UTF-8" standalone="no" ?>
<!DOCTYPE svg PUBLIC "-//W3C//DTD SVG 1.1//EN" "http://www.w3.org/Graphics/SVG/1.1/DTD/svg11.dtd">
<svg xmlns="http://www.w3.org/2000/svg" xmlns:xlink="http://www.w3.org/1999/xlink" version="1.1" width="450" height="450" viewBox="0 0 600 600" xml:space="preserve">
<desc>Created with Fabric.js 3.6.3</desc>
<defs>
</defs>
<g transform="matrix(1.08 0 0 -1.13 321.42 243.95)"  >
<g style=""   >
		<g transform="matrix(19.69 0 0 19.69 -19.36 73.24)"  >
<path style="stroke: none; stroke-width: 1; stroke-dasharray: none; stroke-linecap: butt; stroke-dashoffset: 0; stroke-linejoin: miter; stroke-miterlimit: 4; fill: rgb(0,97,150); fill-rule: nonzero; opacity: 1;"  transform=" translate(-12.02, -16.72)" d="M 12.0175 21.56 L 6.48456 11.8796 H 17.5504 L 12.0175 21.56 Z" stroke-linecap="round" />
</g>
		<g transform="matrix(19.69 0 0 19.69 -19.39 -117.35)"  >
<path style="stroke: none; stroke-width: 1; stroke-dasharray: none; stroke-linecap: butt; stroke-dashoffset: 0; stroke-linejoin: miter; stroke-miterlimit: 4; fill: rgb(43,168,224); fill-rule: nonzero; opacity: 1;"  transform=" translate(-12.02, -7.04)" d="M 17.5487 11.8814 H 6.48285 L 12.014 2.20105 L 17.5487 11.8814 Z" stroke-linecap="round" />
</g>
		<g transform="matrix(19.69 0 0 19.69 104.41 -143.36)"  >
<path style="stroke: none; stroke-width: 1; stroke-dasharray: none; stroke-linecap: butt; stroke-dashoffset: 0; stroke-linejoin: miter; stroke-miterlimit: 4; fill: rgb(0,97,150); fill-rule: nonzero; opacity: 1;"  transform=" translate(-18.3, -5.72)" d="M 13.524 -0.439941 H 24.5898 L 17.5469 11.8815 L 12.0158 2.20114 L 13.524 -0.439941 Z" stroke-linecap="round" />
</g>
		<g transform="matrix(19.69 0 0 19.69 -143.23 -143.36)"  >
<path style="stroke: none; stroke-width: 1; stroke-dasharray: none; stroke-linecap: butt; stroke-dashoffset: 0; stroke-linejoin: miter; stroke-miterlimit: 4; fill: rgb(110,207,245); fill-rule: nonzero; opacity: 1;"  transform=" translate(-5.73, -5.72)" d="M 10.5059 -0.439941 L 12.014 2.20114 L 6.48289 11.8815 L -0.559998 -0.439941 H 10.5059 Z" stroke-linecap="round" />
</g>
</g>
</g>
</svg>
