<svg xmlns="http://www.w3.org/2000/svg" width="256" height="256"><path fill-opacity=".016" d="M0 128.004v128.004l128.25-.254 128.25-.254.254-127.75L257.008 0H0v128.004m.485.496c0 70.4.119 99.053.265 63.672.146-35.38.146-92.98 0-128C.604 29.153.485 58.1.485 128.5" fill="#1976D2" fill-rule="evenodd"/><path fill-opacity=".243" d="M107 60.685c-11.275 20.704-23.14 42.632-26.366 48.729-3.226 6.097-19.314 35.705-35.75 65.795C28.448 205.3 15 230.391 15 230.969c0 .722 15.51.969 49.748.79l49.747-.259 6.433-11.75c3.538-6.463 6.706-11.75 7.04-11.75.333 0 3.515 5.393 7.069 11.984l6.463 11.984 50.25.016c27.637.009 50.25-.367 50.25-.835 0-1.29-112.91-207.615-113.761-207.879-.406-.126-9.964 16.71-21.239 37.415" fill="#1976D2" fill-rule="evenodd"/><path fill-opacity=".252" d="M102.758 69.348 78.016 114.67l31.919 58.415 31.92 58.415 50.183.259c40.029.207 50.08.005 49.671-1-1.582-3.894-112.724-206.262-113.398-206.475-.446-.142-11.945 20.137-25.553 45.064" fill="#1976D2" fill-rule="evenodd"/><path fill-opacity=".43" d="M125.805 28.136c-8.967 15.536-46.973 86.029-46.589 86.413.258.259 22.552.353 49.542.211l49.073-.26-23.49-43c-12.919-23.65-24.058-44.064-24.753-45.364-1.26-2.358-1.271-2.353-3.783 2m51.513 89.072c-.549.71-11.73 21.036-24.849 45.168l-23.851 43.877 2.702 5.123c1.486 2.818 4.512 8.386 6.725 12.374l4.023 7.25h49.466c27.206 0 49.466-.225 49.466-.5 0-.618-61.074-112.695-62.01-113.792-.371-.436-1.124-.211-1.672.5" fill="#1976D2" fill-rule="evenodd"/></svg>