<svg xmlns="http://www.w3.org/2000/svg" width="256" height="256"><path fill-opacity=".016" d="M0 128.004v128.004l128.25-.254 128.25-.254.254-127.75L257.008 0H0v128.004m.485.496c0 70.4.119 99.053.265 63.672.146-35.38.146-92.98 0-128C.604 29.153.485 58.1.485 128.5" fill="#1976D2" fill-rule="evenodd"/><path fill-opacity=".243" d="M113 84.566a14277.75 14277.75 0 0 1-31.75 55.424C71.763 156.455 64 170.625 64 171.479c0 1.372 3.315 1.521 28.707 1.286l28.707-.265 3.043-5.232c1.674-2.878 3.275-5.241 3.559-5.25.284-.01 1.997 2.457 3.806 5.482l3.29 5.5h29.444c16.194 0 29.444-.288 29.444-.641 0-1.082-65.328-113.362-65.933-113.319-.312.022-7.092 11.509-15.067 25.526" fill="#1976D2" fill-rule="evenodd"/><path fill-opacity=".237" d="m113.221 84.904-14.279 24.875 14.64 25.36a54891.845 54891.845 0 0 1 18.236 31.611l3.598 6.25h29.375c16.157 0 29.226-.367 29.042-.816-1.2-2.937-65.179-112.181-65.693-112.169-.352.008-7.065 11.208-14.919 24.889" fill="#1976D2" fill-rule="evenodd"/><path fill-opacity=".448" d="M126.275 63.141c-5.727 9.507-25.236 43.594-25.817 45.109-.63 1.642 1.101 1.75 27.935 1.75 15.734 0 28.607-.171 28.607-.381 0-.209-6.033-10.748-13.406-23.42-7.373-12.672-13.831-23.799-14.351-24.728-.817-1.46-1.219-1.234-2.968 1.67m16.707 72.496-14.28 24.774 2.899 5.409c1.594 2.975 3.355 5.59 3.912 5.81.557.221 13.733.282 29.28.136l28.268-.266-17.099-29.5c-9.405-16.225-17.459-29.869-17.9-30.319-.44-.45-7.226 10.33-15.08 23.956" fill="#1976D2" fill-rule="evenodd"/></svg>